PathFileType	4	(X/Y/Z)	C:\Users\Basilio\Documents\Thesis Gigler\squatting_fais\c3dfiles\044\SLS_front_pre5\markers_experimental.trc
DataRate	CameraRate	NumFrames	NumMarkers	Units	OrigDataRate	OrigDataStartFrame	OrigNumFrames
200.000000	200.000000	4	60	mm	200.000000	713	1427
Frame#	Time	FHD			LBHD			RBHD			C7			T10			LSHO			LUUPA			LMUPA			LDUPA			LLEP			LMEP			LUL			LRFIN			RSHO			RUPA1			RMUPA			RDUPA			RLEP			RMEP			RUL			RUFIN			LASI			RASI			USACR			LSACR			RSACR			LTHI1			LTHI2			LTHI3			LTHI4			LLFC			LMFC			LTIB1			LTIB2			LTIB3			LTIB4			LLMAL			LMMAL			LHEE			LMT1			LMT2			LMT5			RTHI			RTHI2			RTHI3			RTHI4			RLFC			RMFC			RTIB1			RTIB2			RTIB3			RTIB4			RLMAL			RHEE			RMT1			RMT2			RMT5			CLAV			RMMAL			LRAD			
		X1	Y1	Z1	X2	Y2	Z2	X3	Y3	Z3	X4	Y4	Z4	X5	Y5	Z5	X6	Y6	Z6	X7	Y7	Z7	X8	Y8	Z8	X9	Y9	Z9	X10	Y10	Z10	X11	Y11	Z11	X12	Y12	Z12	X13	Y13	Z13	X14	Y14	Z14	X15	Y15	Z15	X16	Y16	Z16	X17	Y17	Z17	X18	Y18	Z18	X19	Y19	Z19	X20	Y20	Z20	X21	Y21	Z21	X22	Y22	Z22	X23	Y23	Z23	X24	Y24	Z24	X25	Y25	Z25	X26	Y26	Z26	X27	Y27	Z27	X28	Y28	Z28	X29	Y29	Z29	X30	Y30	Z30	X31	Y31	Z31	X32	Y32	Z32	X33	Y33	Z33	X34	Y34	Z34	X35	Y35	Z35	X36	Y36	Z36	X37	Y37	Z37	X38	Y38	Z38	X39	Y39	Z39	X40	Y40	Z40	X41	Y41	Z41	X42	Y42	Z42	X43	Y43	Z43	X44	Y44	Z44	X45	Y45	Z45	X46	Y46	Z46	X47	Y47	Z47	X48	Y48	Z48	X49	Y49	Z49	X50	Y50	Z50	X51	Y51	Z51	X52	Y52	Z52	X53	Y53	Z53	X54	Y54	Z54	X55	Y55	Z55	X56	Y56	Z56	X57	Y57	Z57	X58	Y58	Z58	X59	Y59	Z59	X60	Y60	Z60	

714	3.565	-213.1267700195313	1602.384887695313	-1095.2314453125	-346.8726806640626	1564.7666015625	-1170.938110351563	-391.5091857910157	1558.234741210938	-1010.817932128906	-415.1485290527345	1391.589599609375	-1082.778930664063	-476.9978027343751	1103.661743164063	-1027.2783203125	-325.9558715820313	1391.2255859375	-1225.347412109375	-163.8591003417969	1352.204345703125	-1317.945190429688	-136.682601928711	1365.228515625	-1277.116333007813	-94.66568756103517	1344.19580078125	-1317.676635742188	-37.23377990722657	1341.449462890625	-1305.5048828125	-51.7899627685547	1266.040405273438	-1284.672973632813	216.6584014892579	1347.553955078125	-1187.287475585938	218.1187286376954	1370.07568359375	-1088.231079101563	-325.0443420410157	1401.944702148438	-927.1787719726565	-175.4217681884766	1375.091552734375	-821.1613769531252	-144.1036987304688	1384.006591796875	-859.423278808594	-106.0983200073242	1369.26123046875	-816.970642089844	-44.45830154418946	1367.539184570313	-825.6118164062502	-51.92608642578126	1286.098022460938	-833.4804687500002	206.7665557861329	1361.14794921875	-951.8569335937502	218.4123687744141	1343.49169921875	-1066.84228515625	-338.7940368652344	887.3428344726565	-1104.43310546875	-334.1358337402344	893.1292114257815	-890.1533203125002	-501.6228027343751	945.8828125000002	-990.6290283203127	-512.1865844726564	912.3469848632815	-1014.119506835938	-508.570281982422	919.0948486328127	-958.9117431640627	-325.3279418945313	672.7531127929689	-1179.69677734375	-247.9954528808594	636.0146484375001	-1188.235107421875	-213.3694610595704	667.2983398437501	-1182.2158203125	-233.4452667236329	577.9617919921876	-1174.613403320313	-131.9295654296875	465.7583618164064	-1157.325561523438	-118.4261779785157	475.1084899902345	-1036.741088867188	-165.3337860107422	312.1939086914063	-1052.139282226563	-210.8642883300782	269.3211059570313	-1114.275512695313	-182.6128692626953	259.8915100097657	-1074.988647460938	-233.6687316894532	207.7652130126954	-1033.13427734375	-334.8872375488282	121.6431045532227	-1065.864501953125	-311.1354980468751	140.3539123535157	-982.4912719726565	-406.3828125000001	110.9996337890625	-1009.782592773438	-201.0746612548829	62.85872650146486	-986.6109619140627	-199.8762207031251	60.6380081176758	-1034.202758789063	-238.5356903076172	46.94706726074219	-1079.803833007813	-253.9836578369141	680.2230224609376	-790.994812011719	-185.6106109619141	681.0019531250001	-794.2543945312502	-168.4795379638672	707.2515258789064	-806.8596191406252	-139.0906982421875	610.9130249023439	-805.3820800781252	-65.8198699951172	536.5914916992189	-807.150573730469	-69.55352783203126	519.1354370117189	-926.3982543945315	27.75397491455079	438.7823486328126	-828.481140136719	-7.847735404968263	349.4241638183594	-773.7327270507815	32.03128814697266	357.9517822265626	-793.9904785156252	60.04101181030275	313.4507446289063	-816.504577636719	60.00448226928712	149.7559661865235	-786.7260742187502	27.11426162719727	80.58008575439455	-823.4451904296877	218.9036865234376	164.9247131347657	-857.3800048828127	225.1162719726563	172.6046752929688	-820.867614746094	201.6684722900391	144.3379821777344	-764.8845825195314	-282.6270141601563	1336.226196289063	-1079.306274414063	74.17099761962892	154.6593627929688	-871.065612792969	202.6191101074219	1301.547119140625	-1136.058959960938	
715	3.57	-213.0042877197266	1601.764404296875	-1094.591186523438	-346.7203369140626	1564.211303710938	-1170.646606445313	-391.2208251953126	1557.625732421875	-1010.588562011719	-415.1431274414064	1390.734375	-1082.622192382813	-477.079803466797	1103.131958007813	-1027.328002929688	-325.7901306152344	1390.819458007813	-1225.143432617188	-163.6663970947266	1352.07275390625	-1317.708618164063	-136.3147583007813	1365.243530273438	-1276.73388671875	-94.43291473388673	1344.267700195313	-1317.344482421875	-37.04591751098634	1341.522094726563	-1305.061157226563	-51.39033889770509	1266.05859375	-1284.469360351563	216.7702178955079	1348.094604492188	-1186.854370117188	218.307846069336	1370.552734375	-1087.98681640625	-325.0676574707032	1401.301391601563	-926.9766235351565	-175.4390869140625	1374.648559570313	-820.8670654296877	-144.0872802734375	1384.108520507813	-859.7136840820315	-106.0589904785157	1368.550537109375	-816.738464355469	-44.49410247802735	1366.969604492188	-825.3736572265627	-51.77861785888673	1285.423828125	-833.579040527344	206.9749755859376	1361.092895507813	-951.3768310546877	217.7751922607422	1345.147216796875	-1066.464721679688	-338.8565063476563	886.8305664062502	-1104.454956054688	-334.2698669433594	892.3410644531252	-890.2263183593752	-501.5886230468751	945.5267333984377	-990.7778320312502	-512.5277709960939	911.9963378906252	-1014.176879882813	-508.6544799804689	918.6145019531252	-959.0049438476565	-325.2160034179688	672.3731079101564	-1179.8369140625	-247.8030548095704	635.8312988281251	-1188.305053710938	-212.7624816894532	666.6790771484376	-1182.336181640625	-233.3391265869141	577.7174682617189	-1174.79345703125	-131.584213256836	465.495819091797	-1157.346557617188	-118.0707931518555	474.9302978515626	-1036.562866210938	-165.1215209960938	312.0927124023438	-1052.16748046875	-210.6874389648438	269.2572326660157	-1114.239624023438	-182.5973510742188	259.9021301269532	-1075.01904296875	-233.5804290771485	207.7142791748047	-1033.073608398438	-334.8801879882813	121.6548004150391	-1065.856689453125	-311.0891418457032	140.3711700439453	-982.5149536132815	-406.4537963867189	111.0798110961914	-1009.772216796875	-201.036117553711	62.77183532714845	-986.595153808594	-199.8870544433594	60.64492416381837	-1034.252563476563	-238.5389099121094	46.94844055175782	-1079.776611328125	-254.1739959716797	679.6260375976564	-791.215759277344	-185.7972564697266	680.5061035156251	-794.343688964844	-168.6278228759766	707.0482788085939	-807.1027832031252	-139.1042785644532	610.7208251953126	-805.7820434570315	-65.58699798583986	536.2125854492189	-807.6014404296877	-69.39577484130861	519.0108642578126	-926.8963623046877	28.21664428710938	438.5125427246095	-828.877136230469	-7.550151824951174	349.3673095703126	-774.4062500000002	32.25986862182618	357.8473510742188	-794.5000000000002	60.67620849609376	313.3524169921876	-817.4011230468752	61.11003494262697	149.573486328125	-787.7993164062502	27.62610244750977	80.72847747802736	-824.4613037109377	219.3182678222657	164.5152435302735	-858.7553710937502	225.9433135986329	172.5602264404297	-821.4487304687502	202.3464050292969	144.5913543701172	-766.1049804687501	-282.5602111816407	1335.4921875	-1079.070678710938	75.06340789794923	154.68701171875	-872.053405761719	203.3747253417969	1301.6640625	-1135.546630859375	
716	3.575	-214.0754089355469	1601.578369140625	-1094.339233398438	-346.5197143554688	1563.839965820313	-1170.2548828125	-391.3042907714845	1556.931884765625	-1010.189147949219	-414.7440490722657	1390.233032226563	-1082.44970703125	-477.1276245117189	1102.645629882813	-1027.384399414063	-325.3484191894532	1390.75927734375	-1224.698608398438	-163.4252471923828	1352.009643554688	-1317.349975585938	-135.9742889404297	1365.300659179688	-1276.393920898438	-94.1531219482422	1344.247924804688	-1317.0126953125	-36.88765335083009	1341.619262695313	-1304.650756835938	-51.054988861084	1266.062744140625	-1283.984008789063	217.1060333251954	1348.72900390625	-1186.525024414063	218.4710540771485	1370.923583984375	-1087.4228515625	-324.8875427246094	1400.816528320313	-926.7132568359377	-175.4985046386719	1373.892700195313	-820.559753417969	-144.040023803711	1383.07177734375	-859.279235839844	-106.3270797729492	1367.797485351563	-816.697937011719	-44.7087631225586	1365.958740234375	-825.2871704101565	-51.78923797607423	1284.967163085938	-833.4020996093752	207.1354522705079	1360.908325195313	-950.966735839844	218.1977691650391	1345.2041015625	-1066.03759765625	-338.8716735839844	886.3552856445315	-1104.521240234375	-334.5523681640626	891.8634033203127	-890.196960449219	-501.7233276367189	944.8272705078127	-990.7679443359377	-512.5650024414064	911.4265747070315	-1014.370239257813	-508.6769104003907	917.874206542969	-959.0762939453127	-325.1177062988282	671.9724731445314	-1179.961669921875	-247.8649291992188	635.5081176757814	-1188.300170898438	-213.2712707519532	666.7178344726564	-1182.36474609375	-232.4447479248047	576.9248657226564	-1174.833862304688	-131.3292694091797	465.3438415527345	-1157.379150390625	-117.8752517700196	474.844696044922	-1036.571166992188	-164.8858489990235	311.9133911132813	-1052.10400390625	-211.3954772949219	269.4780273437501	-1114.125610351563	-182.3286590576172	259.8822631835938	-1075.374755859375	-233.531967163086	207.6904296875001	-1033.068115234375	-334.8110046386719	121.6382675170899	-1065.92138671875	-311.0646362304688	140.3442687988282	-982.5620117187502	-406.4414367675782	111.0799179077149	-1009.788208007813	-201.062728881836	62.79880523681642	-986.5708618164065	-199.8609771728516	60.67276000976564	-1034.156860351563	-238.4600372314454	46.96025466918946	-1079.816772460938	-254.109848022461	679.0832519531251	-791.6416015625002	-185.8334655761719	679.9566650390626	-794.6904296875002	-168.7416687011719	706.6160888671876	-807.358337402344	-139.0535125732422	610.4135131835939	-806.2489013671877	-65.46920776367189	535.9738769531251	-808.0383911132815	-69.23392486572267	518.7385864257814	-927.3856201171877	28.77171707153321	438.4496459960939	-829.5919189453127	-7.070996761322023	348.9065551757813	-775.1226806640627	33.02165222167969	357.5161437988282	-795.340515136719	61.46579360961915	313.4372863769532	-818.401794433594	61.75710296630861	149.7055206298828	-788.9234008789065	28.98868942260743	80.50083160400392	-825.6623535156252	220.2087097167969	164.9894104003907	-859.3608398437502	226.7227325439454	172.7995758056641	-822.4612426757815	203.176254272461	144.8158264160157	-766.8235473632814	-282.4076538085938	1334.908325195313	-1078.936401367188	76.0593719482422	154.6881256103516	-873.1646728515627	203.7561340332032	1301.51220703125	-1135.230590820313	
717	3.58	-213.8345947265626	1600.799438476563	-1094.012329101563	-347.2926635742188	1562.681640625	-1169.713256835938	-391.0791625976564	1556.30615234375	-1009.834411621094	-414.4815063476564	1389.809936523438	-1082.258178710938	-477.0565490722657	1102.208984375	-1027.455200195313	-324.9933166503907	1390.355712890625	-1224.434448242188	-163.2543487548828	1351.9404296875	-1316.951904296875	-135.8616485595703	1365.21435546875	-1276.048583984375	-94.07935333251955	1344.321166992188	-1316.591674804688	-36.59243392944337	1341.73095703125	-1304.288208007813	-50.64589691162111	1267.076171875	-1283.683227539063	217.2981414794922	1348.999267578125	-1186.115112304688	218.809310913086	1371.343139648438	-1086.85205078125	-324.9004211425782	1400.123168945313	-926.5442504882815	-175.3500213623047	1373.126098632813	-820.3557739257815	-144.0311279296875	1382.539428710938	-858.9732666015627	-106.2094879150391	1367.157958984375	-816.4176025390627	-44.70256042480469	1365.424682617188	-825.1153564453127	-51.66973114013673	1284.491943359375	-833.3454589843752	207.2362213134766	1360.802001953125	-950.5222778320315	218.7871398925782	1344.466796875	-1065.599853515625	-339.1142272949219	885.8251953125002	-1104.62548828125	-334.8511047363282	891.1177978515627	-890.180114746094	-501.8669433593751	944.3686523437502	-990.893005371094	-512.6190185546876	910.7885742187502	-1014.499145507813	-508.6793823242189	917.4287109375002	-959.2197875976565	-325.0498046875001	671.5727539062501	-1180.164428710938	-247.6736602783204	635.2429809570314	-1188.473754882813	-212.7261047363282	666.1055297851564	-1182.433227539063	-232.3568420410157	576.9577636718751	-1174.877685546875	-131.0732574462891	465.2261352539064	-1157.463623046875	-117.7206344604492	474.704071044922	-1036.562377929688	-164.8016662597657	311.8591308593751	-1052.001098632813	-211.2654571533204	269.3492431640626	-1114.155151367188	-182.1661834716797	259.6234436035157	-1075.156494140625	-233.4908294677735	207.6675109863282	-1033.031982421875	-334.8952331542969	121.6517562866211	-1065.947998046875	-311.0245971679688	140.3400268554688	-982.5447387695315	-406.4300842285157	111.1164169311524	-1009.825988769531	-201.2243347167969	62.92338180541994	-986.441345214844	-199.8855438232422	60.66708755493165	-1034.195678710938	-238.4987182617188	46.95885848999024	-1079.788452148438	-254.0753936767579	678.5036621093751	-792.0012817382815	-185.9251251220703	679.7172241210939	-795.2824707031252	-168.766098022461	705.9987792968751	-807.5967407226565	-139.1412506103516	610.1169433593751	-806.6746215820315	-65.26387023925783	535.7867431640626	-808.5885009765627	-68.93445587158205	518.6736450195314	-928.0760498046877	28.99711799621583	438.498504638672	-830.304870605469	-6.411286830902101	348.6261901855469	-776.074401855469	33.31833267211915	357.4566345214844	-796.0987548828127	61.7751922607422	313.2828369140626	-818.9428710937502	62.81654357910158	149.5642242431641	-789.7818603515627	29.63748931884766	80.51110076904298	-826.667907714844	221.1255035400391	165.4031372070313	-860.579284667969	227.3043060302735	173.5211486816407	-823.764831542969	204.1540985107422	144.8972930908203	-768.1158447265627	-282.1163635253907	1334.4755859375	-1078.759887695313	76.84410095214845	154.7669525146485	-874.1723632812502	204.1514434814454	1301.957885742188	-1134.90576171875	
